<svg xmlns="http://www.w3.org/2000/svg" xmlns:xlink="http://www.w3.org/1999/xlink" width="100" zoomAndPan="magnify" viewBox="0 0 75 74.999997" height="100" preserveAspectRatio="xMidYMid meet" version="1.2"><defs><clipPath id="6a3cf68fba"><path d="M 0.703125 5.589844 L 74.203125 5.589844 L 74.203125 69.339844 L 0.703125 69.339844 Z M 0.703125 5.589844 "/></clipPath><clipPath id="c64e0151c7"><path d="M 24.332031 17.199219 L 35 17.199219 L 35 48.699219 L 24.332031 48.699219 Z M 24.332031 17.199219 "/></clipPath><clipPath id="8a375f1f04"><path d="M 28.398438 12.710938 L 42 12.710938 L 42 53.210938 L 28.398438 53.210938 Z M 28.398438 12.710938 "/></clipPath><clipPath id="717ef076c3"><path d="M 34 7.042969 L 51 7.042969 L 51 58.792969 L 34 58.792969 Z M 34 7.042969 "/></clipPath><clipPath id="96df427897"><path d="M 18.730469 12.707031 L 24.15625 12.707031 L 24.15625 18.132812 L 18.730469 18.132812 Z M 18.730469 12.707031 "/></clipPath><clipPath id="7a4d0c0c6f"><path d="M 21.445312 12.707031 C 19.945312 12.707031 18.730469 13.921875 18.730469 15.417969 C 18.730469 16.917969 19.945312 18.132812 21.445312 18.132812 C 22.941406 18.132812 24.15625 16.917969 24.15625 15.417969 C 24.15625 13.921875 22.941406 12.707031 21.445312 12.707031 Z M 21.445312 12.707031 "/></clipPath></defs><g id="ed763f9d43"><g clip-rule="nonzero" clip-path="url(#6a3cf68fba)"><path style=" stroke:none;fill-rule:nonzero;fill:#262626;fill-opacity:1;" d="M 1.476562 11.339844 L 34.859375 67.507812 L 34.878906 67.511719 C 35.507812 68.597656 36.671875 69.339844 38.015625 69.339844 C 39.226562 69.339844 40.289062 68.742188 40.949219 67.839844 L 40.960938 67.839844 L 40.980469 67.800781 C 41.105469 67.628906 41.207031 67.441406 41.300781 67.25 L 73.535156 11.316406 C 73.921875 10.738281 74.148438 10.042969 74.148438 9.292969 C 74.148438 7.285156 72.519531 5.65625 70.507812 5.65625 L 4.484375 5.65625 C 2.476562 5.65625 0.847656 7.285156 0.847656 9.292969 C 0.847656 10.054688 1.082031 10.757812 1.476562 11.339844 Z M 1.476562 11.339844 "/></g><g clip-rule="nonzero" clip-path="url(#c64e0151c7)"><path style=" stroke:none;fill-rule:nonzero;fill:#d8d8d8;fill-opacity:1;" d="M 24.652344 46.234375 C 24.652344 45.6875 24.847656 45.21875 25.230469 44.832031 C 25.625 44.4375 25.996094 44.023438 26.347656 43.59375 C 26.699219 43.164062 27.03125 42.714844 27.339844 42.253906 C 27.648438 41.789062 27.929688 41.3125 28.191406 40.824219 C 28.453125 40.332031 28.691406 39.828125 28.902344 39.316406 C 29.117188 38.800781 29.300781 38.277344 29.464844 37.746094 C 29.625 37.214844 29.757812 36.675781 29.867188 36.128906 C 29.976562 35.582031 30.058594 35.035156 30.109375 34.480469 C 30.164062 33.925781 30.191406 33.371094 30.191406 32.816406 C 30.191406 32.261719 30.164062 31.707031 30.109375 31.152344 C 30.058594 30.597656 29.976562 30.050781 29.867188 29.503906 C 29.757812 28.957031 29.625 28.417969 29.464844 27.886719 C 29.300781 27.355469 29.117188 26.832031 28.902344 26.316406 C 28.691406 25.804688 28.453125 25.300781 28.191406 24.808594 C 27.929688 24.320312 27.648438 23.84375 27.339844 23.378906 C 27.03125 22.917969 26.699219 22.46875 26.347656 22.039062 C 25.996094 21.609375 25.625 21.195312 25.230469 20.800781 C 25.042969 20.613281 24.902344 20.398438 24.800781 20.152344 C 24.699219 19.910156 24.648438 19.652344 24.648438 19.390625 C 24.648438 19.125 24.703125 18.871094 24.804688 18.625 C 24.90625 18.382812 25.050781 18.164062 25.238281 17.976562 C 25.425781 17.792969 25.640625 17.648438 25.886719 17.546875 C 26.132812 17.445312 26.386719 17.394531 26.652344 17.398438 C 26.914062 17.398438 27.171875 17.449219 27.414062 17.550781 C 27.660156 17.652344 27.875 17.796875 28.0625 17.984375 C 28.546875 18.472656 29.003906 18.980469 29.4375 19.511719 C 29.875 20.042969 30.28125 20.59375 30.660156 21.164062 C 31.042969 21.738281 31.394531 22.324219 31.714844 22.933594 C 32.039062 23.539062 32.332031 24.15625 32.59375 24.792969 C 32.855469 25.425781 33.085938 26.074219 33.285156 26.730469 C 33.480469 27.386719 33.648438 28.050781 33.78125 28.726562 C 33.914062 29.398438 34.015625 30.078125 34.082031 30.761719 C 34.148438 31.441406 34.183594 32.128906 34.183594 32.8125 C 34.183594 33.5 34.148438 34.183594 34.082031 34.867188 C 34.015625 35.550781 33.914062 36.230469 33.78125 36.902344 C 33.648438 37.578125 33.480469 38.242188 33.285156 38.898438 C 33.085938 39.554688 32.855469 40.203125 32.59375 40.835938 C 32.332031 41.46875 32.039062 42.089844 31.714844 42.695312 C 31.394531 43.300781 31.042969 43.890625 30.660156 44.460938 C 30.28125 45.035156 29.875 45.585938 29.4375 46.117188 C 29.003906 46.648438 28.546875 47.15625 28.0625 47.644531 C 27.777344 47.929688 27.4375 48.113281 27.039062 48.191406 C 26.644531 48.269531 26.257812 48.234375 25.886719 48.078125 C 25.511719 47.925781 25.214844 47.679688 24.988281 47.34375 C 24.765625 47.007812 24.652344 46.640625 24.652344 46.234375 Z M 24.652344 46.234375 "/></g><g clip-rule="nonzero" clip-path="url(#8a375f1f04)"><path style=" stroke:none;fill-rule:nonzero;fill:#d8d8d8;fill-opacity:1;" d="M 28.972656 50.433594 C 28.972656 49.722656 29.222656 49.113281 29.722656 48.609375 C 30.234375 48.097656 30.71875 47.5625 31.175781 47.003906 C 31.632812 46.441406 32.058594 45.863281 32.460938 45.261719 C 32.863281 44.660156 33.230469 44.039062 33.570312 43.402344 C 33.910156 42.765625 34.21875 42.113281 34.496094 41.445312 C 34.769531 40.777344 35.011719 40.097656 35.222656 39.40625 C 35.429688 38.714844 35.605469 38.011719 35.746094 37.304688 C 35.886719 36.597656 35.992188 35.882812 36.0625 35.164062 C 36.132812 34.445312 36.167969 33.722656 36.167969 33 C 36.167969 32.277344 36.132812 31.558594 36.0625 30.839844 C 35.992188 30.117188 35.886719 29.40625 35.746094 28.695312 C 35.605469 27.988281 35.429688 27.289062 35.222656 26.597656 C 35.011719 25.90625 34.769531 25.226562 34.496094 24.558594 C 34.21875 23.890625 33.910156 23.238281 33.570312 22.597656 C 33.230469 21.960938 32.863281 21.339844 32.460938 20.738281 C 32.058594 20.136719 31.632812 19.558594 31.175781 19 C 30.71875 18.441406 30.234375 17.902344 29.722656 17.390625 C 29.480469 17.148438 29.292969 16.867188 29.164062 16.550781 C 29.03125 16.230469 28.96875 15.898438 28.96875 15.554688 C 28.96875 15.210938 29.035156 14.882812 29.167969 14.5625 C 29.300781 14.246094 29.488281 13.964844 29.730469 13.722656 C 29.976562 13.480469 30.257812 13.292969 30.574219 13.164062 C 30.890625 13.03125 31.222656 12.964844 31.566406 12.96875 C 31.910156 12.96875 32.242188 13.035156 32.558594 13.167969 C 32.878906 13.300781 33.15625 13.488281 33.398438 13.730469 C 34.03125 14.363281 34.625 15.023438 35.191406 15.714844 C 35.753906 16.40625 36.285156 17.121094 36.777344 17.863281 C 37.273438 18.605469 37.730469 19.371094 38.148438 20.160156 C 38.566406 20.945312 38.949219 21.75 39.289062 22.574219 C 39.628906 23.398438 39.925781 24.238281 40.183594 25.09375 C 40.445312 25.945312 40.660156 26.8125 40.832031 27.683594 C 41.007812 28.558594 41.136719 29.441406 41.222656 30.328125 C 41.3125 31.214844 41.355469 32.105469 41.355469 32.996094 C 41.355469 33.890625 41.3125 34.78125 41.222656 35.667969 C 41.136719 36.554688 41.007812 37.4375 40.832031 38.3125 C 40.660156 39.183594 40.445312 40.050781 40.183594 40.902344 C 39.925781 41.757812 39.628906 42.597656 39.289062 43.421875 C 38.949219 44.246094 38.566406 45.050781 38.148438 45.835938 C 37.730469 46.625 37.273438 47.390625 36.777344 48.132812 C 36.285156 48.875 35.753906 49.589844 35.191406 50.28125 C 34.625 50.972656 34.03125 51.632812 33.398438 52.265625 C 33.03125 52.636719 32.585938 52.875 32.074219 52.976562 C 31.558594 53.078125 31.058594 53.03125 30.574219 52.832031 C 30.089844 52.628906 29.699219 52.3125 29.410156 51.875 C 29.117188 51.441406 28.972656 50.960938 28.972656 50.433594 Z M 28.972656 50.433594 "/></g><g clip-rule="nonzero" clip-path="url(#717ef076c3)"><path style=" stroke:none;fill-rule:nonzero;fill:#d8d8d8;fill-opacity:1;" d="M 34.761719 55.246094 C 34.761719 54.339844 35.082031 53.5625 35.71875 52.914062 C 36.371094 52.261719 36.988281 51.578125 37.574219 50.863281 C 38.160156 50.148438 38.707031 49.40625 39.21875 48.636719 C 39.730469 47.867188 40.203125 47.078125 40.636719 46.261719 C 41.070312 45.449219 41.464844 44.613281 41.816406 43.761719 C 42.167969 42.90625 42.480469 42.039062 42.746094 41.15625 C 43.011719 40.269531 43.238281 39.375 43.417969 38.46875 C 43.597656 37.566406 43.730469 36.652344 43.820312 35.734375 C 43.910156 34.816406 43.957031 33.894531 43.957031 32.972656 C 43.957031 32.046875 43.910156 31.125 43.820312 30.207031 C 43.730469 29.289062 43.597656 28.375 43.417969 27.472656 C 43.238281 26.566406 43.011719 25.671875 42.746094 24.789062 C 42.480469 23.902344 42.167969 23.035156 41.816406 22.179688 C 41.464844 21.328125 41.070312 20.496094 40.636719 19.679688 C 40.203125 18.863281 39.730469 18.074219 39.21875 17.304688 C 38.707031 16.535156 38.160156 15.792969 37.574219 15.078125 C 36.988281 14.363281 36.371094 13.679688 35.71875 13.027344 C 35.410156 12.714844 35.171875 12.355469 35.003906 11.949219 C 34.835938 11.542969 34.753906 11.121094 34.753906 10.679688 C 34.753906 10.242188 34.839844 9.816406 35.007812 9.410156 C 35.179688 9.007812 35.417969 8.648438 35.730469 8.339844 C 36.042969 8.027344 36.402344 7.789062 36.808594 7.621094 C 37.214844 7.453125 37.636719 7.371094 38.078125 7.371094 C 38.515625 7.375 38.9375 7.457031 39.34375 7.628906 C 39.75 7.796875 40.109375 8.035156 40.417969 8.347656 C 41.222656 9.15625 41.984375 10 42.707031 10.882812 C 43.425781 11.765625 44.101562 12.679688 44.734375 13.628906 C 45.367188 14.578125 45.949219 15.554688 46.484375 16.5625 C 47.019531 17.566406 47.507812 18.597656 47.941406 19.648438 C 48.375 20.703125 48.757812 21.777344 49.089844 22.867188 C 49.417969 23.957031 49.695312 25.0625 49.914062 26.179688 C 50.136719 27.296875 50.304688 28.421875 50.414062 29.558594 C 50.527344 30.691406 50.582031 31.828125 50.582031 32.96875 C 50.582031 34.105469 50.527344 35.242188 50.414062 36.378906 C 50.304688 37.511719 50.136719 38.636719 49.914062 39.753906 C 49.695312 40.875 49.417969 41.976562 49.089844 43.070312 C 48.757812 44.160156 48.375 45.230469 47.941406 46.285156 C 47.507812 47.339844 47.019531 48.367188 46.484375 49.375 C 45.949219 50.378906 45.367188 51.355469 44.734375 52.304688 C 44.101562 53.253906 43.425781 54.167969 42.707031 55.050781 C 41.984375 55.933594 41.222656 56.777344 40.417969 57.585938 C 39.945312 58.0625 39.378906 58.363281 38.722656 58.496094 C 38.066406 58.628906 37.425781 58.566406 36.808594 58.308594 C 36.1875 58.054688 35.691406 57.644531 35.320312 57.089844 C 34.945312 56.53125 34.761719 55.917969 34.761719 55.246094 Z M 34.761719 55.246094 "/></g><g style="fill:#585858;fill-opacity:1;"><g transform="translate(24.235235, 50.232267)"><path style="stroke:none" d="M 10.28125 0 L 0.5625 -26.5625 L 5.765625 -26.5625 L 13.28125 -4.96875 L 20.84375 -26.5625 L 25.953125 -26.5625 L 16.25 0 Z M 10.28125 0 "/></g></g><g clip-rule="nonzero" clip-path="url(#96df427897)"><g clip-rule="nonzero" clip-path="url(#7a4d0c0c6f)"><path style=" stroke:none;fill-rule:nonzero;fill:#d8d8d8;fill-opacity:1;" d="M 18.730469 12.707031 L 24.15625 12.707031 L 24.15625 18.132812 L 18.730469 18.132812 Z M 18.730469 12.707031 "/></g></g></g></svg>